<?xml version="1.0" standalone="no"?><svg xmlns="http://www.w3.org/2000/svg" viewBox="0 0 1440 320"><path fill="#16325B" fill-opacity="1" d="M0,32L20,69.3C40,107,80,181,120,192C160,203,200,149,240,122.7C280,96,320,96,360,128C400,160,440,224,480,224C520,224,560,160,600,133.3C640,107,680,117,720,106.7C760,96,800,64,840,69.3C880,75,920,117,960,112C1000,107,1040,53,1080,69.3C1120,85,1160,171,1200,181.3C1240,192,1280,128,1320,96C1360,64,1400,64,1420,64L1440,64L1440,320L1420,320C1400,320,1360,320,1320,320C1280,320,1240,320,1200,320C1160,320,1120,320,1080,320C1040,320,1000,320,960,320C920,320,880,320,840,320C800,320,760,320,720,320C680,320,640,320,600,320C560,320,520,320,480,320C440,320,400,320,360,320C320,320,280,320,240,320C200,320,160,320,120,320C80,320,40,320,20,320L0,320Z"></path></svg>