<?xml version="1.0" standalone="no"?><svg xmlns="http://www.w3.org/2000/svg" viewBox="0 0 1440 320"><path fill="#16325B" fill-opacity="1" d="M0,32L24,80C48,128,96,224,144,245.3C192,267,240,213,288,208C336,203,384,245,432,229.3C480,213,528,139,576,144C624,149,672,235,720,250.7C768,267,816,213,864,165.3C912,117,960,75,1008,90.7C1056,107,1104,181,1152,218.7C1200,256,1248,256,1296,234.7C1344,213,1392,171,1416,149.3L1440,128L1440,320L1416,320C1392,320,1344,320,1296,320C1248,320,1200,320,1152,320C1104,320,1056,320,1008,320C960,320,912,320,864,320C816,320,768,320,720,320C672,320,624,320,576,320C528,320,480,320,432,320C384,320,336,320,288,320C240,320,192,320,144,320C96,320,48,320,24,320L0,320Z"></path></svg>