<?xml version="1.0" standalone="no"?><svg xmlns="http://www.w3.org/2000/svg" viewBox="0 0 1440 320"><path fill="#16325B" fill-opacity="1" d="M0,256L24,240C48,224,96,192,144,160C192,128,240,96,288,96C336,96,384,128,432,154.7C480,181,528,203,576,181.3C624,160,672,96,720,64C768,32,816,32,864,53.3C912,75,960,117,1008,117.3C1056,117,1104,75,1152,48C1200,21,1248,11,1296,37.3C1344,64,1392,128,1416,160L1440,192L1440,0L1416,0C1392,0,1344,0,1296,0C1248,0,1200,0,1152,0C1104,0,1056,0,1008,0C960,0,912,0,864,0C816,0,768,0,720,0C672,0,624,0,576,0C528,0,480,0,432,0C384,0,336,0,288,0C240,0,192,0,144,0C96,0,48,0,24,0L0,0Z"></path></svg>